<svg width="548.06" height="161.22" xmlns="http://www.w3.org/2000/svg">
  <path id="svg_1" d="m541.7,108.83c-1.52,-2.88 -3.63,-4.99 -6.35,-6.35c-2.65,-1.41 -5.72,-2.12 -9.19,-2.12c-4.17,0 -7.89,1 -11.14,3.01c-1.83,1.15 -3.37,2.53 -4.63,4.14c-1.03,-1.65 -2.33,-3 -3.92,-4.06c-2.98,-2.06 -6.48,-3.09 -10.49,-3.09c-3.58,0 -6.78,0.79 -9.6,2.36c-1.59,0.87 -2.97,2 -4.15,3.36l0,-5.06l-12.12,0l0,43.77l12.69,0l0,-21.97c0,-2.6 0.41,-4.75 1.22,-6.43c0.81,-1.68 1.95,-2.93 3.42,-3.74c1.46,-0.87 3.11,-1.3 4.96,-1.3c2.66,0 4.69,0.84 6.1,2.52c1.46,1.68 2.2,4.28 2.2,7.81l0,23.11l12.69,0l0,-21.97c0,-2.6 0.41,-4.75 1.22,-6.43c0.81,-1.68 1.95,-2.93 3.42,-3.74c1.46,-0.87 3.11,-1.3 4.96,-1.3c2.66,0 4.72,0.84 6.18,2.52c1.47,1.68 2.2,4.28 2.2,7.81l0,23.11l12.69,0l0,-25.06c0,-4.45 -0.79,-8.08 -2.36,-10.9z" fill="white"/>
  <path id="svg_2" d="m448.91,101.02l0,21.64c0,2.66 -0.43,4.88 -1.3,6.67c-0.87,1.73 -2.06,3.04 -3.58,3.9c-1.52,0.81 -3.25,1.22 -5.21,1.22c-2.82,0 -5.01,-0.84 -6.59,-2.52c-1.51,-1.73 -2.27,-4.42 -2.27,-8.05l0,-22.86l-12.7,0l0,24.73c0,4.5 0.79,8.22 2.36,11.15c1.58,2.88 3.77,5.02 6.59,6.43c2.88,1.41 6.13,2.11 9.77,2.11c3.36,0 6.45,-0.76 9.27,-2.28c1.68,-0.92 3.11,-2.09 4.31,-3.51l0,5.14l12.04,0l0,-43.77l-12.69,0z" fill="white"/>
  <path id="svg_3" d="m402.4,102.81c-1.84,1.01 -3.35,2.33 -4.55,3.96l0,-5.75l-12.12,0l0,43.77l12.69,0l0,-20.67c0,-4.18 1.05,-7.24 3.17,-9.19c2.17,-2.01 4.99,-3.01 8.46,-3.01c0.49,0 0.95,0.03 1.38,0.08c0.44,0 0.93,0.03 1.47,0.08l0,-11.72c-4.12,0 -7.62,0.81 -10.5,2.44l0,0.01z" fill="white"/>
  <path id="svg_4" d="m356.5,145.44c-4.67,0 -8.82,-0.98 -12.45,-2.93c-3.58,-1.95 -6.43,-4.61 -8.54,-7.97c-2.06,-3.42 -3.09,-7.29 -3.09,-11.63s1.03,-8.27 3.09,-11.63c2.11,-3.42 4.96,-6.07 8.54,-7.97c3.63,-1.95 7.78,-2.93 12.45,-2.93s8.73,0.98 12.36,2.93c3.64,1.9 6.48,4.53 8.55,7.89c2.06,3.36 3.09,7.27 3.09,11.72s-1.03,8.22 -3.09,11.63c-2.07,3.36 -4.91,6.02 -8.55,7.97c-3.63,1.95 -7.75,2.93 -12.36,2.93l0,-0.01zm0,-10.42c2.11,0 4.01,-0.49 5.69,-1.46c1.68,-0.98 3.01,-2.36 3.99,-4.15c0.97,-1.84 1.46,-4.01 1.46,-6.51s-0.49,-4.72 -1.46,-6.51c-0.98,-1.79 -2.31,-3.17 -3.99,-4.15c-1.68,-0.98 -3.58,-1.46 -5.69,-1.46s-4.02,0.49 -5.7,1.46c-1.68,0.98 -3.04,2.36 -4.07,4.15c-0.97,1.79 -1.46,3.96 -1.46,6.51s0.49,4.66 1.46,6.51c1.03,1.79 2.39,3.17 4.07,4.15c1.68,0.98 3.58,1.46 5.7,1.46z" fill="white"/>
  <polygon id="svg_5" points="331.92999267578125,98.41000366210938 331.92999267578125,87.83999633789062 288.8900146484375,87.83999633789062 288.8900146484375,144.77999877929688 302.07000732421875,144.77999877929688 302.07000732421875,124.04000091552734 328.42999267578125,124.04000091552734 328.42999267578125,113.45999908447266 302.07000732421875,113.45999908447266 302.07000732421875,98.41000366210938 331.92999267578125,98.41000366210938 " fill="white"/>
  <path id="svg_6" d="m244.55,144.78l0,-60.37l12.7,0l0,60.37l-12.7,0z" fill="white"/>
  <path id="svg_7" d="m230.79,105.08c-3.69,-3.15 -8.87,-4.72 -15.54,-4.72c-3.47,0 -6.89,0.46 -10.25,1.38c-3.36,0.92 -6.24,2.22 -8.62,3.9l4.55,8.87c1.57,-1.25 3.47,-2.22 5.7,-2.93c2.27,-0.76 4.58,-1.14 6.91,-1.14c3.42,0 5.94,0.76 7.57,2.28c1.68,1.52 2.52,3.63 2.52,6.34l-10.09,0c-4.45,0 -8.05,0.57 -10.82,1.71c-2.76,1.08 -4.8,2.6 -6.1,4.56c-1.25,1.95 -1.87,4.23 -1.87,6.83s0.65,4.75 1.95,6.75c1.3,2.01 3.17,3.61 5.61,4.8c2.45,1.14 5.37,1.71 8.79,1.71c3.85,0 7,-0.73 9.44,-2.2c1.65,-0.99 2.95,-2.3 3.9,-3.91l0,5.46l11.88,0l0,-24.98c0,-6.67 -1.84,-11.58 -5.53,-14.73l0,0.02zm-10.82,30.35c-1.68,0.98 -3.58,1.46 -5.7,1.46s-3.98,-0.46 -5.28,-1.38c-1.25,-0.98 -1.88,-2.28 -1.88,-3.9c0,-1.46 0.55,-2.68 1.63,-3.66c1.14,-0.98 3.2,-1.46 6.18,-1.46l8.71,0l0,4.47c-0.76,1.95 -1.98,3.44 -3.66,4.47z" fill="white"/>
  <path id="svg_8" d="m190.31,133.72c-1.41,1.08 -3.12,1.63 -5.13,1.63c-1.68,0 -3.01,-0.49 -3.98,-1.47c-0.98,-1.03 -1.47,-2.47 -1.47,-4.31l0,-17.82l10.9,0l0,-9.76l-10.9,0l0,-10.66l-12.69,0l0,10.66l-6.75,0l0,9.76l6.75,0l0,17.98c0,5.21 1.44,9.14 4.31,11.8c2.88,2.6 6.89,3.9 12.04,3.9c1.96,0 3.83,-0.22 5.62,-0.65c1.84,-0.49 3.41,-1.19 4.72,-2.11l-3.42,-8.95z" fill="white"/>
  <path id="svg_9" d="m144.28,144.78l0,-43.77l12.69,0l0,43.77l-12.69,0zm6.35,-49.87c-2.34,0 -4.24,-0.68 -5.7,-2.03s-2.2,-3.04 -2.2,-5.04s0.74,-3.69 2.2,-5.04s3.36,-2.03 5.7,-2.03s4.23,0.65 5.69,1.95c1.46,1.25 2.2,2.87 2.2,4.88c0,2.11 -0.74,3.88 -2.2,5.29c-1.41,1.36 -3.31,2.03 -5.69,2.03l0,-0.01z" fill="white"/>
  <path id="svg_10" d="m123.68,101.02l0,5.57c-1.31,-1.67 -2.88,-2.99 -4.72,-3.95c-2.82,-1.52 -6.07,-2.28 -9.76,-2.28c-4.07,0 -7.76,0.87 -11.07,2.6c-3.25,1.73 -5.88,4.2 -7.89,7.4c-1.95,3.15 -2.93,6.86 -2.93,11.15s0.98,7.95 2.93,11.15c2.01,3.15 4.64,5.61 7.89,7.4c3.31,1.74 7,2.6 11.07,2.6c3.69,0 6.94,-0.76 9.76,-2.28c1.55,-0.83 2.9,-1.91 4.07,-3.22l0,1.91c0,3.96 -1.03,6.94 -3.09,8.95c-2.01,2.01 -5.26,3.01 -9.76,3.01c-2.77,0 -5.59,-0.46 -8.47,-1.38c-2.82,-0.87 -5.15,-2.06 -6.99,-3.58l-5.05,9.11c2.55,2.01 5.73,3.5 9.52,4.47c3.85,1.03 7.84,1.55 11.96,1.55c7.92,0 13.99,-1.93 18.23,-5.78c4.23,-3.85 6.34,-9.84 6.34,-17.98l0,-36.45l-12.04,0l0,0.03zm-1.95,26.11c-0.98,1.63 -2.33,2.9 -4.07,3.82c-1.74,0.87 -3.72,1.3 -5.94,1.3s-4.2,-0.43 -5.94,-1.3c-1.73,-0.92 -3.12,-2.2 -4.15,-3.82c-0.97,-1.63 -1.46,-3.5 -1.46,-5.61s0.49,-4.04 1.46,-5.61c1.03,-1.63 2.42,-2.88 4.15,-3.74c1.74,-0.92 3.72,-1.38 5.94,-1.38s4.2,0.46 5.94,1.38c1.74,0.87 3.09,2.11 4.07,3.74c0.97,1.57 1.46,3.44 1.46,5.61s-0.49,3.99 -1.46,5.61z" fill="white"/>
  <path id="svg_11" d="m69.35,145.78l0,-43.77l12.69,0l0,43.77l-12.69,0zm6.35,-49.87c-2.33,0 -4.23,-0.68 -5.7,-2.03c-1.46,-1.36 -2.19,-3.04 -2.19,-5.04s0.73,-3.69 2.19,-5.04c1.47,-1.36 3.37,-2.03 5.7,-2.03s4.23,0.65 5.69,1.95c1.47,1.25 2.2,2.87 2.2,4.88c0,2.11 -0.73,3.88 -2.2,5.29c-1.41,1.36 -3.31,2.03 -5.69,2.03l0,-0.01z" fill="white"/>
  <path id="svg_12" d="m6.29,144.78l0,-56.95l25.87,0c6.18,0 11.63,1.19 16.35,3.58c4.72,2.33 8.41,5.61 11.07,9.84c2.65,4.23 3.98,9.25 3.98,15.05s-1.33,10.77 -3.98,15.05c-2.66,4.23 -6.35,7.54 -11.07,9.92c-4.72,2.33 -10.17,3.5 -16.35,3.5l-25.87,0l0,0.01zm13.18,-10.82l12.04,0c3.79,0 7.08,-0.7 9.84,-2.11c2.82,-1.46 4.99,-3.53 6.51,-6.18c1.57,-2.66 2.36,-5.78 2.36,-9.36s-0.79,-6.75 -2.36,-9.36c-1.52,-2.66 -3.69,-4.69 -6.51,-6.1c-2.76,-1.46 -6.05,-2.2 -9.84,-2.2l-12.04,0l0,35.31z" fill="white"/>
  <path id="svg_13" d="m235.33,63.78l0,-60.36l12.7,0l0,60.37l-12.7,0l0,-0.01z" fill="white"/>
  <path id="svg_14" d="m221.57,24.08c-3.69,-3.15 -8.87,-4.72 -15.54,-4.72c-3.47,0 -6.89,0.46 -10.25,1.38c-3.36,0.92 -6.24,2.22 -8.62,3.9l4.55,8.87c1.58,-1.25 3.47,-2.22 5.7,-2.93c2.28,-0.76 4.58,-1.14 6.91,-1.14c3.42,0 5.94,0.76 7.57,2.28c1.68,1.52 2.52,3.63 2.52,6.34l-10.09,0c-4.44,0 -8.05,0.57 -10.82,1.71c-2.76,1.08 -4.8,2.6 -6.1,4.56c-1.25,1.95 -1.87,4.23 -1.87,6.83s0.65,4.75 1.95,6.75c1.3,2.01 3.17,3.61 5.62,4.8c2.44,1.14 5.36,1.71 8.78,1.71c3.85,0 7,-0.73 9.44,-2.2c1.65,-0.99 2.94,-2.3 3.9,-3.91l0,5.46l11.88,0l0,-24.98c0,-6.67 -1.84,-11.58 -5.53,-14.73l0,0.02zm-10.82,30.35c-1.68,0.98 -3.58,1.46 -5.7,1.46s-3.98,-0.46 -5.28,-1.38c-1.25,-0.98 -1.87,-2.28 -1.87,-3.9c0,-1.46 0.54,-2.68 1.62,-3.66c1.14,-0.98 3.2,-1.46 6.19,-1.46l8.7,0l0,4.47c-0.76,1.95 -1.98,3.44 -3.66,4.47z" fill="white"/>
  <path id="svg_15" d="m180.92,29.94c-1.9,-3.36 -4.5,-5.97 -7.81,-7.81c-3.25,-1.84 -6.94,-2.77 -11.06,-2.77c-3.69,0 -6.92,0.81 -9.68,2.44c-1.3,0.76 -2.46,1.72 -3.5,2.86l0,-21.24l-12.69,0l0,60.37l12.12,0l0,-5.07c1.1,1.32 2.37,2.42 3.82,3.28c2.77,1.63 6.08,2.44 9.93,2.44c4.12,0 7.81,-0.92 11.06,-2.77c3.31,-1.9 5.91,-4.53 7.81,-7.89c1.95,-3.36 2.93,-7.32 2.93,-11.88s-0.98,-8.6 -2.93,-11.96zm-11.47,18.47c-0.98,1.79 -2.31,3.17 -3.99,4.15c-1.62,0.98 -3.49,1.47 -5.61,1.47s-4.01,-0.49 -5.69,-1.47c-1.69,-0.98 -3.02,-2.36 -3.99,-4.15c-0.98,-1.84 -1.47,-4.01 -1.47,-6.51s0.49,-4.72 1.47,-6.51c0.97,-1.79 2.3,-3.17 3.99,-4.15c1.68,-0.98 3.57,-1.46 5.69,-1.46s3.99,0.49 5.61,1.46c1.68,0.98 3.01,2.36 3.99,4.15c1.03,1.79 1.55,3.96 1.55,6.51s-0.52,4.66 -1.55,6.51z" fill="white"/>
  <path id="svg_16" d="m106.95,64.44c-4.67,0 -8.82,-0.98 -12.45,-2.93c-3.58,-1.95 -6.43,-4.61 -8.54,-7.97c-2.06,-3.42 -3.1,-7.29 -3.1,-11.63s1.04,-8.27 3.1,-11.63c2.11,-3.42 4.96,-6.07 8.54,-7.97c3.63,-1.95 7.78,-2.93 12.45,-2.93s8.73,0.98 12.36,2.93c3.64,1.9 6.48,4.53 8.54,7.89c2.07,3.36 3.1,7.27 3.1,11.72s-1.03,8.22 -3.1,11.63c-2.06,3.36 -4.9,6.02 -8.54,7.97c-3.63,1.95 -7.75,2.93 -12.36,2.93l0,-0.01zm0,-10.42c2.11,0 4.01,-0.49 5.69,-1.46c1.68,-0.98 3.01,-2.36 3.99,-4.15c0.97,-1.84 1.46,-4.01 1.46,-6.51s-0.49,-4.72 -1.46,-6.51c-0.98,-1.79 -2.31,-3.17 -3.99,-4.15c-1.68,-0.98 -3.58,-1.46 -5.69,-1.46s-4.02,0.49 -5.7,1.46c-1.68,0.98 -3.04,2.36 -4.07,4.15c-0.97,1.79 -1.46,3.96 -1.46,6.51s0.49,4.66 1.46,6.51c1.03,1.79 2.39,3.17 4.07,4.15c1.68,0.98 3.58,1.46 5.7,1.46z" fill="white"/>
  <path id="svg_17" d="m64.9,63.78l0,-60.36l12.69,0l0,60.37l-12.69,0l0,-0.01z" fill="white"/>
  <path id="svg_18" d="m44.77,51.11c-0.89,0.47 -1.78,0.88 -2.69,1.2c-2.44,0.81 -4.96,1.22 -7.56,1.22s-5.21,-0.43 -7.49,-1.3c-2.22,-0.87 -4.17,-2.12 -5.85,-3.74c-1.63,-1.68 -2.91,-3.63 -3.83,-5.86c-0.87,-2.22 -1.3,-4.66 -1.3,-7.32s0.43,-5.18 1.3,-7.4c0.92,-2.22 2.2,-4.15 3.83,-5.78c1.68,-1.63 3.66,-2.88 5.93,-3.74c2.28,-0.87 4.8,-1.3 7.57,-1.3s5.53,0.54 7.97,1.63c2.44,1.03 4.69,2.63 6.76,4.8l8.46,-7.81c-2.77,-3.2 -6.19,-5.64 -10.25,-7.32c-4.02,-1.68 -8.55,-2.52 -13.59,-2.52c-4.56,0 -8.73,0.73 -12.53,2.2c-3.8,1.41 -7.1,3.44 -9.92,6.1c-2.83,2.66 -5.02,5.78 -6.59,9.36c-1.52,3.58 -2.28,7.51 -2.28,11.8s0.76,8.22 2.28,11.8c1.57,3.58 3.74,6.7 6.5,9.36c2.82,2.66 6.11,4.72 9.85,6.18c3.79,1.41 7.94,2.11 12.45,2.11c4.06,0 8.13,-0.62 12.2,-1.87c4.12,-1.25 7.73,-3.04 10.82,-5.37l0,-23.1l-12.04,0l0,16.7l0,-0.03z" fill="white"/>
</svg>