<svg xmlns="http://www.w3.org/2000/svg" id="logo" viewBox="0 0 748.06 161.22">
  <path fill-rule="evenodd" d="M70.56,98.27c-1.47-.4-2.9-.88-4.3-1.43-15.45-6.09-26.34-21.13-26.34-38.67,0-22.95,18.62-41.55,41.58-41.55h.02V0h-.02C49.35,0,23.29,26.04,23.29,58.17c0,24.6,15.28,45.63,36.87,54.14.06.03.13.05.2.08l10.2-14.11Z" />
  <path fill-rule="evenodd" d="M42.23,136.61l-9.84,13.41c9.49,6.71,21.07,10.65,33.58,10.65,32.15,0,58.21-26.04,58.21-58.17,0-11.26-3.2-21.77-8.74-30.67l-16.42,5.46c5.35,6.99,8.53,15.73,8.53,25.21,0,22.95-18.62,41.55-41.58,41.55-8.83,0-17.01-2.75-23.74-7.43Z" />
  <path fill-rule="evenodd" d="M18.57,62.22l-15.78-5.28c-1.81,5.62-2.79,11.62-2.79,17.85,0,32.13,26.06,58.17,58.21,58.17,17.9,0,33.92-8.08,44.6-20.78l-10.23-14c-7.49,10.96-20.09,18.16-34.37,18.16-22.96,0-41.58-18.6-41.58-41.55,0-4.38.68-8.6,1.94-12.57Z" />
  <path fill-rule="evenodd" d="M121.35,136.19l9.98,13.3c14.49-10.58,23.91-27.69,23.91-47,0-32.13-26.06-58.17-58.21-58.17-5.38,0-10.58.73-15.52,2.09v17.52c4.8-1.93,10.04-2.99,15.52-2.99,22.96,0,41.58,18.6,41.58,41.55,0,13.87-6.8,26.15-17.26,33.7Z" />
  <path fill-rule="evenodd" d="M63.28,77.26c-.05-.82-.07-1.64-.07-2.47,0-22.95,18.62-41.55,41.58-41.55,18.61,0,34.37,12.22,39.67,29.07l15.78-5.28c-7.51-23.44-29.5-40.41-55.45-40.41-31.1,0-56.51,24.38-58.13,55.05l16.62,5.58Z" />
</svg>